<svg width="512" height="512" viewBox="0 0 512 512" fill="none" xmlns="http://www.w3.org/2000/svg">
<g clip-path="url(#clip0_1_2)">
<path d="M497 256C497 262.201 493.462 270.214 482.294 279.497C471.215 288.705 454.285 297.67 432.044 305.489C387.7 321.078 325.46 331 256 331C186.54 331 124.3 321.078 79.9556 305.489C57.7151 297.67 40.7846 288.705 29.7059 279.497C18.5377 270.214 15 262.201 15 256C15 249.799 18.5377 241.786 29.7059 232.503C40.7846 223.295 57.7151 214.33 79.9556 206.511C124.3 190.922 186.54 181 256 181C325.46 181 387.7 190.922 432.044 206.511C454.285 214.33 471.215 223.295 482.294 232.503C493.462 241.786 497 249.799 497 256Z" stroke="#F85249" stroke-width="30"/>
<path d="M256 497C249.799 497 241.786 493.462 232.503 482.294C223.295 471.215 214.33 454.285 206.511 432.044C190.922 387.7 181 325.46 181 256C181 186.54 190.922 124.3 206.511 79.9556C214.33 57.7151 223.295 40.7846 232.503 29.7059C241.786 18.5377 249.799 15 256 15C262.201 15 270.214 18.5377 279.497 29.7059C288.705 40.7846 297.67 57.7151 305.489 79.9556C321.078 124.3 331 186.54 331 256C331 325.46 321.078 387.7 305.489 432.044C297.67 454.285 288.705 471.215 279.497 482.294C270.214 493.462 262.2 497 256 497Z" stroke="#58A6FF" stroke-width="30"/>
</g>
<defs>
</defs>
</svg>
